<svg width="122.88" height="92.81" xmlns="http://www.w3.org/2000/svg" data-name="Layer 1">

 <title>workstation</title>
 <g>
  <title>Layer 1</title>
  <path fill="#daf1de" id="svg_1" fill-rule="evenodd" d="m90.11,21.7l28.81,0a4,4 0 0 1 4,4l0,63.2a4,4 0 0 1 -4,4l-28.81,0a4,4 0 0 1 -4,-4l0,-63.25a4,4 0 0 1 4,-3.95zm-78.25,28.3a1.68,1.68 0 1 1 0,-3.36l16.7,0a1.68,1.68 0 0 1 0,3.36l-16.7,0zm0,-9.55a1.68,1.68 0 1 1 0,-3.36l16.7,0a1.68,1.68 0 1 1 0,3.36l-16.7,0zm0,19.11a1.68,1.68 0 1 1 0,-3.36l37.52,0a1.68,1.68 0 0 1 0,3.36l-37.52,0zm0.31,-55.22l0,2.72a1.45,1.45 0 0 0 1.44,1.45l2.24,0a11.23,11.23 0 0 0 1.07,2.85l-1.73,1.72a1.46,1.46 0 0 0 0,2.05l2.14,2.14a1.44,1.44 0 0 0 2.05,0l1.62,-1.58a11.59,11.59 0 0 0 2.73,1.31l0,2.43a1.45,1.45 0 0 0 1.45,1.45l3,0a1.46,1.46 0 0 0 1.45,-1.45l0,-2.27a11.38,11.38 0 0 0 2.85,-1.07l1.72,1.72a1.44,1.44 0 0 0 2.05,0l2.14,-2.14a1.45,1.45 0 0 0 0,-2l-1.55,-1.67a10.86,10.86 0 0 0 1.26,-2.73l2.44,0a1.45,1.45 0 0 0 1.46,-1.45l0,-3a1.77,1.77 0 0 0 -0.07,-0.46l61,0a2.69,2.69 0 0 1 2.68,2.64l0,3.86l4,0l0,-7.86a3.05,3.05 0 0 0 -3,-3l-103.61,0a3.05,3.05 0 0 0 -3,3l0,70.12a3,3 0 0 0 3,3l73.1,0l0,-11.56l-69.43,0a2.7,2.7 0 0 1 -2.67,-2.69l0,-54.87a2.69,2.69 0 0 1 2.67,-2.66l5.5,0zm20.64,0a5.95,5.95 0 1 1 -11.47,0l11.47,0zm33.4,10.34l2.37,2.37a1.61,1.61 0 0 1 0,2.28l-1.91,1.91a12.64,12.64 0 0 1 1.19,3.16l2.47,0a1.62,1.62 0 0 1 1.61,1.6l0,3.36a1.62,1.62 0 0 1 -1.61,1.64l-2.7,0a12.55,12.55 0 0 1 -1.4,3.07l1.77,1.73a1.6,1.6 0 0 1 0,2.27l-2.37,2.38a1.6,1.6 0 0 1 -2.27,0l-1.92,-1.91a12.24,12.24 0 0 1 -3.16,1.18l0,2.48a1.61,1.61 0 0 1 -1.61,1.61l-3.38,0a1.61,1.61 0 0 1 -1.6,-1.61l0,-2.7a12.83,12.83 0 0 1 -3.08,-1.4l-1.75,1.75a1.62,1.62 0 0 1 -2.27,0l-2.38,-2.37a1.63,1.63 0 0 1 0,-2.28l1.91,-1.91a12.76,12.76 0 0 1 -1.18,-3.16l-2.48,0a1.62,1.62 0 0 1 -1.61,-1.61l0,-3.36a1.62,1.62 0 0 1 1.61,-1.61l2.7,0a13,13 0 0 1 1.41,-3.07l-1.76,-1.75a1.63,1.63 0 0 1 0,-2.28l2.38,-2.37a1.6,1.6 0 0 1 2.27,0l1.91,1.92a12.86,12.86 0 0 1 3.17,-1.19l0,-2.48a1.61,1.61 0 0 1 1.6,-1.61l3.36,0a1.62,1.62 0 0 1 1.61,1.61l0,2.67a12.76,12.76 0 0 1 3.07,1.4l1.76,-1.75a1.6,1.6 0 0 1 2.27,0l0,0.03zm-10.81,6a6.61,6.61 0 1 1 -6.6,6.6a6.61,6.61 0 0 1 6.6,-6.6zm-14.4,59.68l27.59,0c0.07,4.77 2,9 7.36,12.41l-42.31,0c4.29,-3.11 7.36,-6.86 7.36,-12.41zm73.23,-42.28l2.87,0l0,1.64l-2.87,0l0,-1.64zm-9.72,38.35a4.31,4.31 0 1 1 -4.31,4.31a4.31,4.31 0 0 1 4.31,-4.31zm-13,-42.1l26,0a0.82,0.82 0 0 1 0.82,0.82l0,4.47a0.83,0.83 0 0 1 -0.82,0.83l-26,0a0.82,0.82 0 0 1 -0.82,-0.82l0,-4.48a0.82,0.82 0 0 1 0.82,-0.82z" class="cls-1"/>
 </g>
</svg>