<svg width="122.88" height="121.51" xmlns="http://www.w3.org/2000/svg">
 <title>edit</title>

 <g>
  <title>background</title>
  <rect fill="none" id="canvas_background" height="514" width="514" y="-1" x="-1"/>
 </g>
 <g>
  <title>Layer 1</title>
  <path fill="#daf1de" id="svg_1" d="m28.66,1.64l30.22,0l-14.42,15.07l-15.8,0a13.52,13.52 0 0 0 -9.59,4l0,0a13.52,13.52 0 0 0 -4,9.59l0,76.14l76.14,0a13.5,13.5 0 0 0 9.59,-4l0,0a13.5,13.5 0 0 0 4,-9.59l0,-15.55l15.07,-15.74l0,31.29a28.6,28.6 0 0 1 -8.41,20.22l0,0.05a28.58,28.58 0 0 1 -20.2,8.39l-79.76,0a11.47,11.47 0 0 1 -8.1,-3.37l0,0a11.52,11.52 0 0 1 -3.4,-8.14l0,-79.7a28.58,28.58 0 0 1 8.41,-20.21l0.05,-0.09a28.58,28.58 0 0 1 20.2,-8.4l0,0.04zm44.34,74.83l-29.42,6l4.25,-31.31l25.17,25.31zm-15.87,-34.79l39.17,-40.77a2.74,2.74 0 0 1 3.39,-0.53l22.48,21.76a2.39,2.39 0 0 1 -0.19,3.57l-39.7,41.29l-25.15,-25.32z"/>
 </g>
</svg>