<svg width="121.7" height="122.88" xmlns="http://www.w3.org/2000/svg">
 <defs>
  <style>.cls-1{fill-rule:evenodd;}</style>
 </defs>
 <title>growing-market-analysis</title>
 <g>
  <title>background</title>
  <rect fill="none" id="canvas_background" height="514" width="514" y="-1" x="-1"/>
 </g>
 <g>
  <title>Layer 1</title>
  <path fill="#daf1de" id="svg_1" d="m33.24,57.68l0,18.73a0.87,0.87 0 0 1 -0.86,0.86l-7.38,0a0.87,0.87 0 0 1 -0.86,-0.86l0,-18.73l9.1,0zm20.38,-57.68a53.62,53.62 0 0 1 44.87,83l23.21,25.29l-16,14.63l-22.38,-24.66a53.62,53.62 0 1 1 -29.7,-98.26zm33.68,19.93a47.64,47.64 0 1 0 14,33.69a47.48,47.48 0 0 0 -14,-33.69zm-63.18,31.63l19.57,-17.12c4.31,4.24 8.53,9.37 12.81,13.61l15.63,-15.7l-5,-5l14.82,-0.13l0,15l-4.86,-4.92c-3.47,3.51 -11.66,11.25 -15.09,14.7c-4.38,4.38 -6.47,4.46 -10.86,0.08l-7.4,-8.25l-8.74,7.73l-10.88,0zm53.8,-4.56l0,29.41a0.87,0.87 0 0 1 -0.86,0.86l-7.41,0a0.86,0.86 0 0 1 -0.85,-0.86l0,-22.29l4.73,-4.57l3.47,-3.38a6,6 0 0 0 0.89,0.78l0.03,0.05zm-14.92,12.32l0,17.09a0.86,0.86 0 0 1 -0.85,0.86l-7.39,0a0.86,0.86 0 0 1 -0.85,-0.86l0,-15.26a11.23,11.23 0 0 0 9.09,-1.83zm-14.87,-1.39l0,18.48a0.86,0.86 0 0 1 -0.86,0.86l-7.4,0a0.87,0.87 0 0 1 -0.86,-0.86l0,-20a4.94,4.94 0 0 0 0.44,-0.36l3.7,-3.28l3,3.32l0.23,0.24q0.9,0.9 1.77,1.65l-0.02,-0.05z" class="cls-1"/>
 </g>
</svg>