<svg width="122.88" height="63.7" xmlns="http://www.w3.org/2000/svg">
 <style type="text/css">
  <![CDATA[
	.st0{fill-rule:evenodd;clip-rule:evenodd;}
]]>
 </style>

 <g>
  <title>background</title>
  <rect fill="none" id="canvas_background" height="514" width="514" y="-1" x="-1"/>
 </g>
 <g>
  <title>Layer 1</title>
  <g id="svg_1">
   <path fill="#daf1de" id="svg_2" d="m2.29,59.12l11.37,0c-0.84,-0.21 -1.47,-0.99 -1.47,-1.9l0,-55.26c0.01,-1.07 0.89,-1.96 1.97,-1.96l82.18,0c1.07,0 1.96,0.89 1.96,1.96l0,16.66l-3.08,0.94l0,-9.48l-79.67,0l0,46.58l79.67,0l0,-12.02l1.02,-0.17c0.69,-0.12 1.34,-0.34 1.93,-0.65l0.14,-0.03l0,13.41c0,0.91 -0.63,1.68 -1.47,1.9l11.89,0c1.26,0 2.29,1.03 2.29,2.29l0,0c0,1.27 -1.03,2.29 -2.29,2.29l-106.44,0c-1.26,0.02 -2.29,-1.01 -2.29,-2.28l0,0c0,-1.25 1.03,-2.28 2.29,-2.28l0,0l0,0zm76.7,-24.02c1.05,1.13 2.22,3.44 1.99,5.44l14.2,-2.41c-0.53,-4.02 -1.71,-7.71 -3.99,-10.84c-4.6,3.12 -7.24,5.06 -12.2,7.81l0,0l0,0zm-22.97,11.58c6.64,-1.97 13.74,5.08 19.39,-0.39c1.5,-1.45 2.52,-3.79 2.39,-5.98c-0.06,-0.88 -0.29,-1.73 -0.76,-2.48c-0.21,-0.33 -0.46,-0.64 -0.75,-0.95c-3.62,-3.69 -9.23,-2.23 -12.92,0.6c-3.39,2.61 -5.82,6.49 -7.35,9.2l0,0l0,0zm37.06,-19.75c2.14,3.39 3.49,6.91 3.98,10.58l23.07,-12.51c1.91,-0.86 3.13,-1.74 2.64,-4.24c-0.38,-0.82 -0.9,-1.37 -1.56,-1.65c-0.65,-0.28 -1.43,-0.28 -2.35,0l-25.78,7.82l0,0l0,0zm-70.7,-6.25l66.25,0c0.39,0 0.74,0.14 1.01,0.38c-0.79,0.2 -1.55,0.54 -2.25,1.06l-0.14,0.11c-3.17,2.15 -0.98,0.65 -1.81,1.22l-0.5,0.35l-61,0l0,16.13l28.69,0c-0.73,1.09 -1.37,2.15 -1.92,3.1l-28.33,0c-0.86,0 -1.55,-0.7 -1.55,-1.55l0,-19.25c0,-0.85 0.69,-1.55 1.55,-1.55l0,0zm57.6,-3.61c-0.86,0 -1.55,-0.69 -1.55,-1.55c0,-0.86 0.7,-1.55 1.55,-1.55l6.25,0c0.86,0 1.55,0.69 1.55,1.55c0,0.86 -0.69,1.55 -1.55,1.55l-6.25,0l0,0zm-15.44,0c-0.86,0 -1.55,-0.69 -1.55,-1.55c0,-0.86 0.7,-1.55 1.55,-1.55l6.25,0c0.86,0 1.55,0.69 1.55,1.55c0,0.86 -0.7,1.55 -1.55,1.55l-6.25,0l0,0zm-15.45,0c-0.86,0 -1.55,-0.69 -1.55,-1.55c0,-0.86 0.69,-1.55 1.55,-1.55l6.25,0c0.86,0 1.55,0.69 1.55,1.55c0,0.86 -0.69,1.55 -1.55,1.55l-6.25,0l0,0zm-23.99,-12.36c0.86,0 1.56,0.7 1.56,1.56s-0.7,1.56 -1.56,1.56c-0.86,0 -1.56,-0.7 -1.56,-1.56s0.71,-1.56 1.56,-1.56l0,0l0,0zm5.28,0c0.86,0 1.55,0.7 1.55,1.56s-0.7,1.56 -1.55,1.56s-1.56,-0.7 -1.56,-1.56c0,-0.86 0.7,-1.56 1.56,-1.56l0,0l0,0zm-10.55,0c0.86,0 1.56,0.7 1.56,1.56s-0.7,1.56 -1.56,1.56c-0.86,0 -1.56,-0.7 -1.56,-1.56c0,-0.86 0.7,-1.56 1.56,-1.56l0,0l0,0zm32.45,55.27l6.45,0c0.61,0 1.1,0.5 1.1,1.1l0,0c0,0.61 -0.5,1.1 -1.1,1.1l-6.45,0c-0.61,0 -1.1,-0.5 -1.1,-1.1l0,0c0,-0.62 0.49,-1.1 1.1,-1.1l0,0l0,0z" class="st0"/>
  </g>
 </g>
</svg>