<svg width="122.88" height="95.51" xmlns="http://www.w3.org/2000/svg">
 <style type="text/css">.st0{fill-rule:evenodd;clip-rule:evenodd;}</style>

 <g>
  <title>background</title>
  <rect fill="none" id="canvas_background" height="514" width="514" y="-1" x="-1"/>
 </g>
 <g>
  <title>Layer 1</title>
  <g id="svg_1">
   <path fill="#daf1de" id="svg_2" d="m8.32,0l106.24,0c4.58,0 8.32,3.74 8.32,8.32l0,78.87c0,4.57 -3.74,8.32 -8.32,8.32l-106.24,0c-4.58,0 -8.32,-3.74 -8.32,-8.32l0,-78.87c0,-4.58 3.74,-8.32 8.32,-8.32l0,0zm4.28,26.42l96.77,0l0,43.73l-96.77,0l0,-43.73l0,0zm48.16,3.18c-10.04,0 -18.18,8.14 -18.18,18.18s8.14,18.18 18.18,18.18c10.04,0 18.18,-8.14 18.18,-18.18s-8.14,-18.18 -18.18,-18.18l0,0l0,0zm-13.64,18.18c0,5.26 3.14,9.8 7.69,11.95l-6.51,-17.35c-0.75,1.65 -1.18,3.48 -1.18,5.4l0,0l0,0zm25.65,-6.51c0.06,0.42 0.09,0.88 0.09,1.37c0,1.35 -0.26,2.86 -1.04,4.76l-4.17,11.73c4.05,-2.3 6.78,-6.58 6.78,-11.48c0.01,-2.31 -0.59,-4.49 -1.66,-6.38l0,0l0,0l0,0l0,0zm-2.8,5.84c0,-1.64 -0.6,-2.78 -1.12,-3.66c-0.69,-1.1 -1.34,-2.02 -1.34,-3.12c0,-1.22 0.95,-2.36 2.29,-2.36c0.06,0 0.12,0.01 0.18,0.01c-2.43,-2.17 -5.66,-3.49 -9.21,-3.49c-4.76,0 -8.96,2.38 -11.39,5.99c0.32,0.01 0.62,0.02 0.88,0.02c1.43,0 3.63,-0.17 3.63,-0.17c0.73,-0.04 0.82,1.01 0.09,1.1c0,0 -0.74,0.08 -1.56,0.13l4.97,14.39l2.98,-8.72l-2.13,-5.67c-0.73,-0.04 -1.43,-0.13 -1.43,-0.13c-0.74,-0.04 -0.65,-1.14 0.09,-1.1c0,0 2.25,0.17 3.59,0.17c1.43,0 3.63,-0.17 3.63,-0.17c0.73,-0.04 0.82,1.01 0.09,1.1c0,0 -0.74,0.08 -1.56,0.13l4.93,14.28l1.36,-4.42c0.57,-1.85 1.02,-3.17 1.03,-4.31l0,0l0,0l0,0l0,0zm-8.97,1.83l-4.09,11.58c1.25,0.36 2.55,0.54 3.85,0.54l0,0c1.59,0 3.11,-0.27 4.53,-0.75c-0.04,-0.06 -0.07,-0.12 -0.1,-0.18l-4.19,-11.19l0,0l0,0l0,0zm5.87,35.8c-1.78,0 -3.22,-1.57 -3.22,-3.5c0,-1.94 1.44,-3.5 3.22,-3.5l39.65,0c1.78,0 3.22,1.57 3.22,3.5c0,1.93 -1.44,3.5 -3.22,3.5l-39.65,0l0,0zm-51.91,0c-1.76,0 -3.19,-1.57 -3.19,-3.5c0,-1.94 1.43,-3.5 3.19,-3.5l36.76,0c1.76,0 3.19,1.57 3.19,3.5c0,1.93 -1.43,3.5 -3.19,3.5l-36.76,0l0,0zm103.01,-64.64l-112.68,0l0,67.9c0,1.28 1.02,2.3 2.3,2.3l108.04,0c1.28,0 2.3,-1.03 2.3,-2.3l0,-67.9l0.04,0l0,0zm-11.33,-12.88c2.27,0 4.11,1.84 4.11,4.11s-1.84,4.11 -4.11,4.11c-2.27,0 -4.11,-1.84 -4.11,-4.11s1.85,-4.11 4.11,-4.11l0,0zm-27.84,0c2.27,0 4.11,1.84 4.11,4.11s-1.84,4.11 -4.11,4.11c-2.27,0 -4.11,-1.84 -4.11,-4.11s1.84,-4.11 4.11,-4.11l0,0zm13.92,0c2.27,0 4.11,1.84 4.11,4.11s-1.84,4.11 -4.11,4.11c-2.27,0 -4.11,-1.84 -4.11,-4.11s1.84,-4.11 4.11,-4.11l0,0z" class="st0"/>
  </g>
 </g>
</svg>